<?xml version="1.0" standalone="no"?>
<!DOCTYPE svg PUBLIC "-//W3C//DTD SVG 1.1//EN" "http://www.w3.org/Graphics/SVG/1.1/DTD/svg11.dtd">
<svg xmlns="http://www.w3.org/2000/svg" xmlns:xlink="http://www.w3.org/1999/xlink" width="803.2872314453125" height="135.66140747070312" viewBox="0 0 803.2872590000002 135.66140640000003">
    <g id="555e1e5a-26d6-49d5-987f-18c2d0231cd1">
<g style="">
		<g id="555e1e5a-26d6-49d5-987f-18c2d0231cd1-child-0">
<path style="stroke: rgb(193,193,193); stroke-width: 0; stroke-dasharray: none; stroke-linecap: butt; stroke-dashoffset: 0; stroke-linejoin: miter; stroke-miterlimit: 4; fill: rgb(21,39,67); fill-rule: nonzero; opacity: 1;" transform="matrix(0.79846 0 0 0.795948 136.677962 67.830572) matrix(1 0 0 1 0 0)  translate(-181.823031, -81.462878)" d="M 133.95 155.70 C 119.77 151.69 110.45 139.01 110.64 124.00 C 110.76 115.21 113.78 108.45 120.38 102.20 C 131.86 91.34 148.50 90.06 160.95 99.08 L 165.23 102.18 L 161.43 106.07 C 158.13 109.45 157.42 109.79 156.06 108.61 C 151.07 104.25 140.88 102.59 134.32 105.06 C 127.32 107.70 121.06 116.98 121.02 124.78 C 120.92 145.58 148.07 153.85 159.75 136.58 C 161.54 133.94 163.00 131.37 163.00 130.89 C 163.00 130.40 156.70 130.00 149.00 130.00 C 141.30 130.00 135.00 129.75 135.00 129.44 C 135.00 129.14 135.50 126.89 136.12 124.44 L 137.24 120.00 L 155.62 120.00 L 174.00 120.00 L 174.00 124.82 C 174.00 131.76 171.59 138.77 167.23 144.50 C 160.08 153.90 145.24 158.89 133.95 155.70 M 197.99 156.13 C 190.35 153.62 184.36 148.26 181.08 141.00 C 179.24 136.93 179.04 134.45 179.02 115.25 L 179.00 94.00 L 184.00 94.00 L 189.00 94.00 L 189.01 112.75 C 189.01 123.06 189.45 133.09 190.00 135.04 C 190.54 136.99 192.55 140.11 194.46 141.96 C 197.34 144.75 198.87 145.41 203.41 145.78 C 210.18 146.35 215.09 143.71 218.03 137.94 C 219.80 134.48 220.00 132.00 220.00 114.04 L 220.00 94.00 L 225.00 94.00 L 230.00 94.00 L 230.00 115.53 C 230.00 138.54 229.60 140.90 224.59 147.47 C 219.50 154.14 205.67 158.64 197.99 156.13 M 11.00 124.95 L 11.00 93.89 L 15.75 94.20 L 20.50 94.50 L 20.77 119.75 L 21.03 145.00 L 33.02 145.00 L 45.00 145.00 L 45.00 150.50 L 45.00 156.00 L 28.00 156.00 L 11.00 156.00 L 11.00 124.95 M 48.33 154.57 C 50.13 149.90 74.51 96.27 75.33 95.20 C 75.98 94.35 78.17 94.01 81.72 94.20 L 87.12 94.50 L 100.56 124.31 C 107.95 140.70 114.00 154.54 114.00 155.06 C 114.00 155.58 111.59 156.00 108.63 156.00 L 103.27 156.00 L 92.45 131.98 C 86.50 118.77 81.30 108.31 80.88 108.73 C 80.15 109.48 69.00 133.74 69.00 134.58 C 69.00 134.81 72.62 135.00 77.04 135.00 L 85.07 135.00 L 87.04 139.58 C 88.12 142.10 89.00 144.35 89.00 144.58 C 89.00 144.81 83.41 145.00 76.57 145.00 L 64.15 145.00 L 61.63 150.50 L 59.11 156.00 L 53.45 156.00 C 48.96 156.00 47.90 155.71 48.33 154.57 M 236.71 155.38 C 236.32 154.99 236.00 141.02 236.00 124.33 L 236.00 94.00 L 241.75 94.02 L 247.50 94.04 L 259.50 114.58 L 271.50 135.12 L 271.77 114.56 L 272.04 94.00 L 277.53 94.00 L 283.03 94.00 L 282.76 124.75 L 282.50 155.50 L 276.99 155.79 L 271.49 156.09 L 259.49 135.59 L 247.50 115.09 L 247.00 135.30 L 246.50 155.50 L 241.96 155.80 C 239.47 155.96 237.10 155.77 236.71 155.38 M 287.00 155.28 C 287.00 154.88 293.15 140.93 300.66 124.28 L 314.31 94.00 L 319.97 94.00 L 325.63 94.00 L 339.32 124.26 C 346.84 140.90 353.00 154.87 353.00 155.31 C 353.00 155.74 350.49 155.96 347.41 155.80 L 341.82 155.50 L 331.16 131.77 C 325.30 118.72 320.27 108.04 320.00 108.03 C 319.57 108.01 310.22 128.40 308.43 133.25 C 307.85 134.82 308.58 135.00 315.69 135.00 L 323.60 135.00 L 325.80 139.53 C 327.01 142.02 328.00 144.27 328.00 144.53 C 328.00 144.79 322.35 145.00 315.44 145.00 L 302.89 145.00 L 300.46 150.50 L 298.03 156.00 L 292.51 156.00 C 289.48 156.00 287.00 155.68 287.00 155.28 M 32.50 78.85 C 26.04 78.09 20.19 75.97 15.67 72.76 L 12.83 70.75 L 17.11 66.39 C 20.90 62.53 21.56 62.20 22.98 63.48 C 25.79 66.03 31.80 68.00 36.72 68.00 C 45.32 67.99 50.90 62.44 47.92 56.84 C 46.07 53.37 44.23 52.25 36.50 49.91 C 16.52 43.86 8.65 35.42 11.07 22.64 C 12.99 12.51 20.52 6.78 32.77 6.15 C 40.95 5.73 48.05 7.55 54.38 11.67 L 58.27 14.21 L 53.67 18.81 L 49.06 23.41 L 46.78 21.27 C 43.79 18.46 36.36 16.52 31.82 17.37 C 27.56 18.17 23.00 22.37 23.00 25.50 C 23.00 29.71 26.70 32.85 34.32 35.13 C 47.11 38.97 56.28 44.77 59.55 51.10 C 61.25 54.38 61.45 62.67 59.94 66.68 C 56.49 75.80 46.03 80.44 32.50 78.85 M 97.23 78.91 C 89.87 77.94 82.05 73.83 76.72 68.13 C 70.84 61.84 68.29 56.70 66.83 48.19 C 64.06 32.05 72.92 15.99 88.58 8.77 C 92.60 6.92 95.24 6.50 103.02 6.50 C 111.77 6.50 113.09 6.77 119.23 9.79 C 132.37 16.26 139.39 27.79 139.46 43.02 C 139.49 50.68 139.16 52.23 136.22 58.20 C 128.78 73.31 114.08 81.12 97.23 78.91 M 113.54 64.63 C 122.27 60.57 127.19 52.82 127.25 43.03 C 127.33 29.16 116.83 18.57 103.00 18.57 C 89.22 18.57 79.00 28.76 79.00 42.50 C 79.00 60.79 97.01 72.33 113.54 64.63 M 146.00 42.50 L 146.00 7.00 L 152.00 7.00 L 158.00 7.00 L 158.00 36.50 L 158.00 66.00 L 172.00 66.00 L 186.00 66.00 L 186.00 72.00 L 186.00 78.00 L 166.00 78.00 L 146.00 78.00 L 146.00 42.50 M 195.00 49.00 L 195.00 20.00 L 184.50 20.00 L 174.00 20.00 L 174.00 13.48 L 174.00 6.97 L 200.75 7.23 L 227.50 7.50 L 227.80 13.75 L 228.10 20.00 L 217.55 20.00 L 207.00 20.00 L 207.00 49.00 L 207.00 78.00 L 201.00 78.00 L 195.00 78.00 L 195.00 49.00 M 233.24 42.75 L 233.50 7.50 L 257.00 7.50 L 280.50 7.50 L 280.80 13.75 L 281.10 20.00 L 263.01 20.00 L 244.92 20.00 L 245.21 28.25 L 245.50 36.50 L 258.63 36.78 L 271.77 37.06 L 273.27 43.03 L 274.78 49.00 L 259.89 49.00 L 245.00 49.00 L 245.00 57.50 L 245.00 66.00 L 263.00 66.00 L 281.00 66.00 L 281.00 72.00 L 281.00 78.00 L 256.99 78.00 L 232.97 78.00 L 233.24 42.75 M 285.65 76.75 C 286.07 76.06 291.98 68.19 298.77 59.25 C 306.66 48.87 310.84 42.55 310.35 41.75 C 309.93 41.06 304.05 33.22 297.29 24.33 C 290.53 15.43 285.00 7.89 285.00 7.58 C 285.00 7.26 288.30 7.00 292.33 7.00 L 299.67 7.00 L 309.08 19.50 C 314.26 26.37 318.72 32.00 319.00 32.00 C 319.28 32.00 323.78 26.38 329.00 19.50 L 338.49 7.00 L 345.75 7.00 C 349.74 7.00 353.00 7.28 353.00 7.63 C 353.00 7.97 347.10 16.04 339.89 25.57 L 326.79 42.88 L 339.21 59.19 C 346.04 68.16 351.97 76.06 352.38 76.75 C 352.94 77.70 351.35 78.00 345.61 78.00 L 338.10 78.00 L 328.96 66.00 C 323.93 59.40 319.48 54.00 319.07 54.00 C 318.66 54.00 314.18 59.40 309.12 66.00 L 299.93 78.00 L 292.40 78.00 C 286.64 78.00 285.06 77.71 285.65 76.75 Z" stroke-linecap="round"/>
</g>
</g>
</g>
<g id="9fb978af-a1db-4d98-b101-130946e4786c">
<g style="">
		<g id="9fb978af-a1db-4d98-b101-130946e4786c-child-0">
<path style="stroke: none; stroke-width: 0; stroke-dasharray: none; stroke-linecap: butt; stroke-dashoffset: 0; stroke-linejoin: miter; stroke-miterlimit: 4; fill: rgb(45,45,45); fill-rule: nonzero; opacity: 1;" d="M312.29114,135.66141v-135.66141h4.39743v135.66141z" stroke-linecap="round"/>
</g>
</g>
</g>
<g transform="matrix(1 0 0 1 -1598.35637 -1033.707725)" id="c0269c60-725e-48f2-9da6-7f74fffe8869">

</g>
<g id="8b1c7513-48de-40d0-a3d2-24777e829db8">
<g style="">
		<g id="acb13985-5f64-42ee-9be1-304afb691ddb">
<path style="stroke: rgb(136,136,136); stroke-width: 0; stroke-dasharray: none; stroke-linecap: butt; stroke-dashoffset: 0; stroke-linejoin: miter; stroke-miterlimit: 4; fill: rgb(0,0,0); fill-rule: nonzero; opacity: 1;" d="M365.35653,42.2406c-0.17,-0.21 -0.45,-0.44 -0.82,-0.68c-0.37,-0.24 -0.8,-0.46 -1.29,-0.66c-0.49,-0.2 -1.03,-0.37 -1.62,-0.52c-0.58,-0.14 -1.18,-0.21 -1.79,-0.21c-1.35,0 -2.35,0.25 -3,0.75c-0.65,0.49 -0.98,1.18 -0.98,2.07c0,0.65 0.18,1.17 0.55,1.55c0.37,0.39 0.93,0.7 1.68,0.94c0.76,0.24 1.7,0.49 2.81,0.76c1.4,0.33 2.6,0.72 3.61,1.18c1.01,0.46 1.78,1.06 2.33,1.81c0.55,0.75 0.82,1.75 0.82,3c0,1.01 -0.2,1.9 -0.59,2.65c-0.39,0.75 -0.93,1.35 -1.62,1.82c-0.69,0.47 -1.49,0.82 -2.39,1.05c-0.9,0.23 -1.87,0.35 -2.91,0.35c-1.01,0 -2.02,-0.11 -3.03,-0.33c-1.01,-0.22 -1.97,-0.54 -2.88,-0.95c-0.91,-0.41 -1.76,-0.92 -2.55,-1.51l1.5,-2.77c0.23,0.25 0.58,0.53 1.06,0.83c0.48,0.29 1.03,0.57 1.66,0.84c0.62,0.27 1.3,0.5 2.04,0.68c0.74,0.18 1.49,0.27 2.26,0.27c1.29,0 2.27,-0.22 2.95,-0.67c0.68,-0.45 1.02,-1.11 1.02,-1.97c0,-0.67 -0.22,-1.22 -0.67,-1.63c-0.45,-0.41 -1.1,-0.76 -1.93,-1.05c-0.84,-0.29 -1.84,-0.57 -3.01,-0.86c-1.35,-0.35 -2.47,-0.74 -3.37,-1.18c-0.9,-0.45 -1.57,-1 -2.01,-1.67c-0.45,-0.67 -0.67,-1.55 -0.67,-2.62c0,-1.35 0.32,-2.48 0.97,-3.41c0.64,-0.93 1.53,-1.64 2.66,-2.11c1.13,-0.47 2.39,-0.7 3.77,-0.7c0.92,0 1.8,0.1 2.64,0.3c0.83,0.2 1.61,0.47 2.33,0.82c0.72,0.35 1.36,0.74 1.91,1.18zM382.18653,58.0106c-1.44,0 -2.75,-0.29 -3.94,-0.86c-1.19,-0.57 -2.22,-1.36 -3.09,-2.35c-0.87,-0.99 -1.55,-2.1 -2.02,-3.33c-0.47,-1.24 -0.71,-2.51 -0.71,-3.82c0,-1.36 0.25,-2.66 0.75,-3.9c0.5,-1.24 1.2,-2.34 2.09,-3.31c0.89,-0.97 1.93,-1.73 3.11,-2.3c1.18,-0.57 2.48,-0.85 3.9,-0.85c1.48,0 2.81,0.3 3.99,0.89c1.18,0.59 2.2,1.39 3.06,2.39c0.87,1 1.53,2.11 1.99,3.34c0.46,1.23 0.69,2.49 0.69,3.8c0,1.34 -0.24,2.63 -0.72,3.87c-0.48,1.24 -1.17,2.34 -2.06,3.31c-0.89,0.97 -1.93,1.73 -3.11,2.29c-1.18,0.55 -2.49,0.83 -3.93,0.83zM375.74653,47.6506c0,0.98 0.15,1.92 0.44,2.81c0.3,0.89 0.73,1.69 1.3,2.39c0.57,0.7 1.25,1.25 2.04,1.65c0.79,0.41 1.7,0.61 2.72,0.61c1.03,0 1.95,-0.21 2.76,-0.64c0.81,-0.42 1.49,-0.99 2.05,-1.71c0.55,-0.72 0.97,-1.52 1.26,-2.4c0.29,-0.89 0.44,-1.79 0.44,-2.71c0,-0.98 -0.16,-1.91 -0.47,-2.79c-0.31,-0.88 -0.75,-1.67 -1.32,-2.38c-0.57,-0.7 -1.26,-1.25 -2.06,-1.65c-0.79,-0.4 -1.68,-0.6 -2.66,-0.6c-1.05,0 -1.98,0.21 -2.78,0.63c-0.79,0.42 -1.47,0.99 -2.03,1.7c-0.55,0.71 -0.97,1.5 -1.26,2.39c-0.29,0.88 -0.43,1.78 -0.43,2.7zM398.23653,57.8706v-20.44h3.26v17.59h10.94v2.85zM425.82653,58.0106c-1.63,0 -3.01,-0.28 -4.13,-0.83c-1.13,-0.56 -2.03,-1.32 -2.71,-2.27c-0.68,-0.96 -1.18,-2.06 -1.5,-3.29c-0.31,-1.23 -0.47,-2.5 -0.47,-3.82v-10.37h3.25v10.37c0,0.94 0.09,1.85 0.27,2.72c0.19,0.87 0.49,1.65 0.91,2.34c0.42,0.69 0.99,1.24 1.7,1.64c0.71,0.41 1.59,0.61 2.65,0.61c1.09,0 1.99,-0.2 2.7,-0.61c0.71,-0.4 1.29,-0.96 1.72,-1.67c0.43,-0.71 0.73,-1.49 0.92,-2.36c0.18,-0.86 0.27,-1.75 0.27,-2.67v-10.37h3.25v10.37c0,1.4 -0.17,2.72 -0.5,3.95c-0.33,1.24 -0.85,2.33 -1.55,3.27c-0.71,0.94 -1.62,1.67 -2.74,2.2c-1.12,0.53 -2.47,0.79 -4.04,0.79zM440.54653,47.5106c0,-1.25 0.22,-2.47 0.66,-3.67c0.44,-1.2 1.09,-2.29 1.94,-3.28c0.85,-0.99 1.89,-1.78 3.11,-2.36c1.22,-0.59 2.61,-0.88 4.16,-0.88c1.86,0 3.46,0.42 4.79,1.25c1.33,0.83 2.33,1.9 2.98,3.21l-2.53,1.7c-0.37,-0.83 -0.84,-1.48 -1.43,-1.96c-0.58,-0.48 -1.22,-0.82 -1.91,-1.01c-0.69,-0.19 -1.37,-0.28 -2.02,-0.28c-1.05,0 -1.98,0.21 -2.79,0.64c-0.81,0.43 -1.48,1.01 -2.03,1.72c-0.55,0.71 -0.95,1.5 -1.22,2.38c-0.27,0.89 -0.4,1.77 -0.4,2.65c0,1 0.16,1.95 0.47,2.85c0.32,0.91 0.77,1.71 1.35,2.41c0.59,0.7 1.28,1.25 2.08,1.65c0.79,0.41 1.67,0.61 2.63,0.61c0.67,0 1.36,-0.12 2.07,-0.35c0.71,-0.23 1.37,-0.6 1.98,-1.09c0.6,-0.5 1.07,-1.13 1.42,-1.9l2.68,1.49c-0.41,1.02 -1.06,1.88 -1.95,2.59c-0.89,0.71 -1.89,1.25 -3,1.62c-1.11,0.36 -2.22,0.54 -3.31,0.54c-1.41,0 -2.7,-0.3 -3.89,-0.9c-1.19,-0.61 -2.22,-1.41 -3.09,-2.42c-0.87,-1.01 -1.55,-2.14 -2.03,-3.4c-0.48,-1.25 -0.72,-2.52 -0.72,-3.81zM464.40653,57.8706v-20.44h3.25v20.44zM483.58653,58.0106c-1.44,0 -2.76,-0.29 -3.95,-0.86c-1.19,-0.57 -2.22,-1.36 -3.09,-2.35c-0.87,-0.99 -1.55,-2.1 -2.02,-3.33c-0.47,-1.24 -0.7,-2.51 -0.7,-3.82c0,-1.36 0.25,-2.66 0.75,-3.9c0.49,-1.24 1.19,-2.34 2.08,-3.31c0.89,-0.97 1.93,-1.73 3.11,-2.3c1.18,-0.57 2.48,-0.85 3.9,-0.85c1.48,0 2.81,0.3 3.99,0.89c1.18,0.59 2.2,1.39 3.06,2.39c0.87,1 1.53,2.11 1.99,3.34c0.46,1.23 0.69,2.49 0.69,3.8c0,1.34 -0.24,2.63 -0.72,3.87c-0.48,1.24 -1.17,2.34 -2.06,3.31c-0.89,0.97 -1.92,1.73 -3.11,2.29c-1.18,0.55 -2.49,0.83 -3.92,0.83zM477.13653,47.6506c0,0.98 0.15,1.92 0.44,2.81c0.3,0.89 0.73,1.69 1.3,2.39c0.57,0.7 1.25,1.25 2.04,1.65c0.8,0.41 1.71,0.61 2.72,0.61c1.04,0 1.96,-0.21 2.77,-0.64c0.81,-0.42 1.49,-0.99 2.04,-1.71c0.56,-0.72 0.98,-1.52 1.27,-2.4c0.29,-0.89 0.43,-1.79 0.43,-2.71c0,-0.98 -0.15,-1.91 -0.46,-2.79c-0.31,-0.88 -0.75,-1.67 -1.33,-2.38c-0.57,-0.7 -1.26,-1.25 -2.05,-1.65c-0.8,-0.4 -1.69,-0.6 -2.67,-0.6c-1.05,0 -1.98,0.21 -2.77,0.63c-0.8,0.42 -1.48,0.99 -2.03,1.7c-0.56,0.71 -0.98,1.5 -1.27,2.39c-0.29,0.88 -0.43,1.78 -0.43,2.7zM502.88653,43.4206v14.45h-3.25v-20.44h2.65l11.57,14.77v-14.74h3.22v20.41h-2.79zM538.59653,55.0206v2.85h-14.02v-20.44h13.76v2.85h-10.51v5.85h9.13v2.64h-9.13v6.25zM556.90653,42.2406c-0.17,-0.21 -0.45,-0.44 -0.82,-0.68c-0.37,-0.24 -0.8,-0.46 -1.29,-0.66c-0.49,-0.2 -1.03,-0.37 -1.61,-0.52c-0.59,-0.14 -1.19,-0.21 -1.8,-0.21c-1.35,0 -2.35,0.25 -3,0.75c-0.65,0.49 -0.98,1.18 -0.98,2.07c0,0.65 0.18,1.17 0.55,1.55c0.37,0.39 0.93,0.7 1.68,0.94c0.76,0.24 1.7,0.49 2.81,0.76c1.4,0.33 2.6,0.72 3.61,1.18c1.01,0.46 1.79,1.06 2.34,1.81c0.55,0.75 0.82,1.75 0.82,3c0,1.01 -0.2,1.9 -0.59,2.65c-0.39,0.75 -0.94,1.35 -1.63,1.82c-0.69,0.47 -1.49,0.82 -2.39,1.05c-0.9,0.23 -1.87,0.35 -2.91,0.35c-1.01,0 -2.02,-0.11 -3.03,-0.33c-1.01,-0.22 -1.97,-0.54 -2.88,-0.95c-0.91,-0.41 -1.76,-0.92 -2.55,-1.51l1.5,-2.77c0.23,0.25 0.58,0.53 1.06,0.83c0.48,0.29 1.03,0.57 1.66,0.84c0.62,0.27 1.3,0.5 2.04,0.68c0.74,0.18 1.49,0.27 2.26,0.27c1.29,0 2.27,-0.22 2.95,-0.67c0.68,-0.45 1.02,-1.11 1.02,-1.97c0,-0.67 -0.22,-1.22 -0.67,-1.63c-0.45,-0.41 -1.1,-0.76 -1.93,-1.05c-0.83,-0.29 -1.84,-0.57 -3.01,-0.86c-1.35,-0.35 -2.47,-0.74 -3.37,-1.18c-0.9,-0.45 -1.57,-1 -2.01,-1.67c-0.44,-0.67 -0.66,-1.55 -0.66,-2.62c0,-1.35 0.32,-2.48 0.96,-3.41c0.64,-0.93 1.53,-1.64 2.66,-2.11c1.13,-0.47 2.39,-0.7 3.77,-0.7c0.92,0 1.8,0.1 2.64,0.3c0.83,0.2 1.61,0.47 2.33,0.82c0.72,0.35 1.36,0.74 1.91,1.18zM575.26653,57.8706v-20.44h8.89c0.92,0 1.77,0.19 2.54,0.58c0.77,0.38 1.43,0.89 2,1.52c0.56,0.63 1,1.35 1.32,2.15c0.31,0.79 0.47,1.59 0.47,2.4c0,0.92 -0.16,1.79 -0.48,2.61c-0.33,0.81 -0.79,1.52 -1.4,2.11c-0.61,0.6 -1.31,1.03 -2.12,1.3l4.81,7.77h-3.63l-4.43,-7.11h-4.72v7.11zM578.51653,47.9106h5.61c0.6,0 1.13,-0.18 1.59,-0.53c0.46,-0.35 0.82,-0.82 1.09,-1.4c0.27,-0.57 0.4,-1.21 0.4,-1.9c0,-0.71 -0.16,-1.35 -0.47,-1.93c-0.32,-0.57 -0.72,-1.03 -1.2,-1.36c-0.48,-0.34 -1.01,-0.51 -1.58,-0.51h-5.44zM611.18653,55.0206v2.85h-14.02v-20.44h13.76v2.85h-10.51v5.85h9.13v2.64h-9.13v6.25zM623.30653,37.4306h3.05l7.95,20.44h-3.4l-2.13,-5.56h-7.91l-2.13,5.56h-3.4zM628.11653,49.9306l-3.28,-8.96l-3.37,8.96zM639.71653,57.8706v-20.44h3.25v17.59h10.94v2.85zM673.42653,55.0206v2.85h-14.02v-20.44h13.76v2.85h-10.51v5.85h9.13v2.64h-9.13v6.25zM691.73653,42.2406c-0.17,-0.21 -0.45,-0.44 -0.82,-0.68c-0.37,-0.24 -0.8,-0.46 -1.29,-0.66c-0.49,-0.2 -1.03,-0.37 -1.62,-0.52c-0.58,-0.14 -1.18,-0.21 -1.79,-0.21c-1.35,0 -2.35,0.25 -3,0.75c-0.65,0.49 -0.98,1.18 -0.98,2.07c0,0.65 0.18,1.17 0.55,1.55c0.37,0.39 0.93,0.7 1.68,0.94c0.76,0.24 1.7,0.49 2.81,0.76c1.4,0.33 2.6,0.72 3.61,1.18c1.01,0.46 1.78,1.06 2.33,1.81c0.55,0.75 0.83,1.75 0.83,3c0,1.01 -0.2,1.9 -0.59,2.65c-0.4,0.75 -0.94,1.35 -1.63,1.82c-0.69,0.47 -1.49,0.82 -2.39,1.05c-0.9,0.23 -1.87,0.35 -2.91,0.35c-1.01,0 -2.02,-0.11 -3.03,-0.33c-1.01,-0.22 -1.97,-0.54 -2.88,-0.95c-0.91,-0.41 -1.76,-0.92 -2.55,-1.51l1.5,-2.77c0.23,0.25 0.58,0.53 1.06,0.83c0.48,0.29 1.03,0.57 1.66,0.84c0.62,0.27 1.3,0.5 2.04,0.68c0.74,0.18 1.49,0.27 2.26,0.27c1.29,0 2.27,-0.22 2.95,-0.67c0.68,-0.45 1.02,-1.11 1.02,-1.97c0,-0.67 -0.22,-1.22 -0.67,-1.63c-0.45,-0.41 -1.1,-0.76 -1.93,-1.05c-0.83,-0.29 -1.84,-0.57 -3.01,-0.86c-1.35,-0.35 -2.47,-0.74 -3.37,-1.18c-0.9,-0.45 -1.57,-1 -2.01,-1.67c-0.45,-0.67 -0.67,-1.55 -0.67,-2.62c0,-1.35 0.32,-2.48 0.97,-3.41c0.64,-0.93 1.53,-1.64 2.66,-2.11c1.13,-0.47 2.39,-0.7 3.77,-0.7c0.92,0 1.8,0.1 2.64,0.3c0.83,0.2 1.61,0.47 2.33,0.82c0.72,0.35 1.36,0.74 1.91,1.18zM353.26653,98.1706v-20.44h8.58c0.92,0 1.77,0.19 2.54,0.58c0.77,0.39 1.45,0.89 2.02,1.52c0.57,0.63 1,1.35 1.31,2.15c0.31,0.79 0.46,1.59 0.46,2.4c0,1.14 -0.25,2.22 -0.76,3.23c-0.51,1.01 -1.22,1.84 -2.15,2.48c-0.92,0.65 -2,0.97 -3.25,0.97h-5.49v7.11zM356.52653,88.2106h5.29c0.59,0 1.12,-0.17 1.58,-0.51c0.47,-0.33 0.83,-0.79 1.1,-1.38c0.27,-0.58 0.4,-1.23 0.4,-1.96c0,-0.75 -0.15,-1.41 -0.46,-1.98c-0.31,-0.57 -0.7,-1.01 -1.19,-1.32c-0.49,-0.32 -1.02,-0.48 -1.57,-0.48h-5.15zM378.68653,77.7306h3.05l7.94,20.44h-3.39l-2.13,-5.56h-7.92l-2.13,5.56h-3.39zM383.49653,90.2206l-3.29,-8.95l-3.36,8.95zM395.08653,98.1706v-20.44h8.9c0.92,0 1.76,0.19 2.53,0.58c0.77,0.38 1.43,0.89 2,1.52c0.57,0.63 1.01,1.35 1.32,2.15c0.32,0.79 0.48,1.59 0.48,2.4c0,0.92 -0.16,1.79 -0.49,2.61c-0.33,0.81 -0.79,1.52 -1.4,2.11c-0.6,0.59 -1.3,1.03 -2.11,1.3l4.8,7.77h-3.62l-4.44,-7.11h-4.72v7.11zM398.33653,88.2106h5.62c0.59,0 1.12,-0.18 1.58,-0.53c0.46,-0.36 0.82,-0.83 1.09,-1.4c0.27,-0.57 0.41,-1.21 0.41,-1.9c0,-0.71 -0.16,-1.35 -0.48,-1.93c-0.31,-0.57 -0.71,-1.03 -1.19,-1.37c-0.48,-0.33 -1.01,-0.5 -1.59,-0.5h-5.44zM422.88653,77.7306h3.05l7.95,20.44h-3.4l-2.13,-5.56h-7.91l-2.13,5.56h-3.4zM427.69653,90.2206l-3.28,-8.95l-3.37,8.95zM448.38653,98.1706v-20.44h3.25v17.59h10.94v2.85zM473.98653,77.7306h3.05l7.94,20.44h-3.4l-2.13,-5.56h-7.91l-2.13,5.56h-3.4zM478.78653,90.2206l-3.28,-8.95l-3.37,8.95zM499.47653,98.1706v-20.44h3.26v20.44zM513.44653,83.7206v14.45h-3.25v-20.44h2.65l11.57,14.77v-14.74h3.22v20.41h-2.79zM535.13653,98.1706v-20.44h7.26c2.21,0 4.04,0.46 5.51,1.37c1.47,0.91 2.57,2.14 3.32,3.68c0.75,1.55 1.12,3.26 1.12,5.14c0,2.07 -0.41,3.88 -1.22,5.41c-0.81,1.53 -1.97,2.72 -3.47,3.57c-1.49,0.85 -3.25,1.27 -5.26,1.27zM549.06653,87.9206c0,-1.44 -0.26,-2.71 -0.79,-3.8c-0.53,-1.09 -1.28,-1.96 -2.27,-2.59c-0.99,-0.63 -2.19,-0.95 -3.61,-0.95h-4.01v14.74h4.01c1.43,0 2.65,-0.33 3.64,-0.98c0.99,-0.65 1.74,-1.54 2.26,-2.65c0.51,-1.11 0.77,-2.37 0.77,-3.77zM567.14653,98.3106c-1.63,0 -3.01,-0.28 -4.13,-0.83c-1.13,-0.56 -2.03,-1.32 -2.71,-2.28c-0.68,-0.96 -1.18,-2.05 -1.49,-3.28c-0.32,-1.23 -0.48,-2.5 -0.48,-3.83v-10.36h3.25v10.36c0,0.94 0.09,1.85 0.28,2.72c0.18,0.87 0.48,1.66 0.9,2.35c0.43,0.69 0.99,1.24 1.7,1.64c0.71,0.4 1.6,0.6 2.65,0.6c1.09,0 2,-0.2 2.71,-0.6c0.71,-0.4 1.28,-0.96 1.71,-1.67c0.43,-0.71 0.74,-1.49 0.92,-2.36c0.18,-0.87 0.27,-1.76 0.27,-2.68v-10.36h3.26v10.36c0,1.4 -0.17,2.72 -0.51,3.96c-0.33,1.24 -0.85,2.33 -1.55,3.27c-0.7,0.94 -1.61,1.67 -2.74,2.2c-1.12,0.53 -2.47,0.79 -4.04,0.79zM595.24653,82.5406c-0.17,-0.21 -0.44,-0.44 -0.82,-0.68c-0.37,-0.24 -0.8,-0.46 -1.29,-0.66c-0.49,-0.2 -1.03,-0.37 -1.61,-0.52c-0.59,-0.14 -1.19,-0.21 -1.8,-0.21c-1.35,0 -2.35,0.25 -3,0.74c-0.65,0.5 -0.97,1.19 -0.97,2.08c0,0.65 0.18,1.16 0.54,1.55c0.37,0.39 0.93,0.7 1.69,0.94c0.75,0.24 1.69,0.49 2.8,0.76c1.4,0.33 2.61,0.72 3.62,1.18c1.01,0.46 1.78,1.06 2.33,1.81c0.55,0.75 0.82,1.75 0.82,3c0,1.01 -0.2,1.89 -0.59,2.64c-0.39,0.75 -0.94,1.36 -1.63,1.83c-0.69,0.47 -1.49,0.82 -2.39,1.05c-0.9,0.23 -1.87,0.35 -2.91,0.35c-1.01,0 -2.02,-0.11 -3.03,-0.33c-1.01,-0.22 -1.97,-0.54 -2.88,-0.95c-0.91,-0.41 -1.76,-0.92 -2.55,-1.51l1.5,-2.77c0.23,0.25 0.58,0.53 1.06,0.82c0.48,0.3 1.03,0.58 1.66,0.85c0.62,0.27 1.3,0.5 2.04,0.68c0.74,0.18 1.49,0.27 2.26,0.27c1.29,0 2.27,-0.22 2.95,-0.67c0.68,-0.45 1.02,-1.11 1.02,-1.98c0,-0.67 -0.22,-1.21 -0.67,-1.62c-0.45,-0.41 -1.1,-0.76 -1.93,-1.05c-0.83,-0.29 -1.84,-0.58 -3.01,-0.87c-1.34,-0.34 -2.46,-0.73 -3.37,-1.18c-0.9,-0.44 -1.57,-1 -2.01,-1.67c-0.44,-0.67 -0.66,-1.54 -0.66,-2.62c0,-1.34 0.32,-2.48 0.96,-3.41c0.65,-0.93 1.53,-1.63 2.66,-2.1c1.13,-0.47 2.39,-0.7 3.77,-0.7c0.93,0 1.81,0.1 2.64,0.3c0.83,0.2 1.61,0.47 2.33,0.82c0.72,0.35 1.36,0.74 1.91,1.18zM618.61653,80.5806h-6.79v17.59h-3.26v-17.59h-6.82v-2.85h16.87zM624.23653,98.1706v-20.44h8.89c0.92,0 1.76,0.19 2.53,0.58c0.77,0.38 1.44,0.89 2,1.52c0.57,0.63 1.01,1.35 1.33,2.15c0.31,0.79 0.47,1.59 0.47,2.4c0,0.92 -0.16,1.79 -0.49,2.61c-0.33,0.81 -0.79,1.52 -1.39,2.11c-0.61,0.59 -1.31,1.03 -2.12,1.3l4.81,7.77h-3.63l-4.43,-7.11h-4.72v7.11zM627.48653,88.2106h5.61c0.59,0 1.12,-0.18 1.59,-0.53c0.46,-0.36 0.82,-0.83 1.09,-1.4c0.27,-0.57 0.4,-1.21 0.4,-1.9c0,-0.71 -0.16,-1.35 -0.47,-1.93c-0.32,-0.57 -0.72,-1.03 -1.2,-1.37c-0.48,-0.33 -1.01,-0.5 -1.58,-0.5h-5.44zM646.13653,98.1706v-20.44h3.25v20.44zM662.74653,77.7306h3.06l7.94,20.44h-3.4l-2.13,-5.56h-7.91l-2.13,5.56h-3.4zM667.55653,90.2206l-3.28,-8.95l-3.37,8.95zM702.43653,80.5806h-6.79v17.59h-3.25v-17.59h-6.83v-2.85h16.87zM722.07653,95.3206v2.85h-14.02v-20.44h13.76v2.85h-10.51v5.84h9.13v2.65h-9.13v6.25zM729.59653,77.7306l5.64,8.03l5.64,-8.03h3.6l-7.4,10.36l7.17,10.08h-3.6l-5.41,-7.75l-5.41,7.75h-3.6l7.11,-10.08l-7.34,-10.36zM764.63653,80.5806h-6.8v17.59h-3.25v-17.59h-6.82v-2.85h16.87zM770.24653,98.1706v-20.44h3.26v20.44zM780.96653,98.1706v-20.44h3.25v17.59h10.94v2.85z" stroke-linecap="round"/>
</g>
</g>
</g>
<g transform="matrix(1 0 0 1 -1598.35637 -1033.707725)" id="ad33b7f8-57c0-4e31-aa1e-3be1763ffe48">

</g>
<g transform="matrix(1 0 0 1 -1598.35637 -1033.707725)" id="524e3d0b-cedf-4a81-8d26-6dc0d67963f7">

</g>

  </svg>